# xmcd CD database file
# Copyright (C) 1993-1998 Ti Kan
#
# Track frame offsets:
#	150
#	17625
#	41100
#	63225
#	78375
#	89300
#	100575
#	117750
#	130575
#	141300
#	161425
#
# Disc length: 2386 seconds
#
# Revision: 1
# Processed by: cddbd v1.4b41PL1 Copyright (c) Steve Scherf et al.
# Submitted via: CDValet v3.01 - Copyright (c) 1997 Greg Leichner
#
DISCID=8309500b
DTITLE=Katie Webster - The Many Faces Of Katie Webster
DYEAR=1900
DGENRE=
TTITLE0=Real Gone Guy
TTITLE1=Basin Street Blues
TTITLE2=Slowly I'm Falling
TTITLE3=Sitting In My La La
TTITLE4=I Feel So Low
TTITLE5=Katie Lee
TTITLE6=I Can't Give You Anything But Love
TTITLE7=Precious Lord
TTITLE8=I Am Walking/Whole Lotta Loving
TTITLE9=Drift Away
TTITLE10=Lord, I Wonder
EXTD=
EXTT0=
EXTT1=
EXTT2=
EXTT3=
EXTT4=
EXTT5=
EXTT6=
EXTT7=
EXTT8=
EXTT9=
EXTT10=
PLAYORDER=
